%TF.GenerationSoftware,KiCad,Pcbnew,7.0.8*%
%TF.CreationDate,2023-10-19T16:09:35-04:00*%
%TF.ProjectId,CAN-Board-V1,43414e2d-426f-4617-9264-2d56312e6b69,rev?*%
%TF.SameCoordinates,Original*%
%TF.FileFunction,Drillmap*%
%TF.FilePolarity,Positive*%
%FSLAX45Y45*%
G04 Gerber Fmt 4.5, Leading zero omitted, Abs format (unit mm)*
G04 Created by KiCad (PCBNEW 7.0.8) date 2023-10-19 16:09:35*
%MOMM*%
%LPD*%
G01*
G04 APERTURE LIST*
%ADD10C,0.150000*%
%ADD11C,0.200000*%
%ADD12C,0.065000*%
%ADD13C,0.080000*%
%ADD14C,0.090000*%
%ADD15C,0.110000*%
G04 APERTURE END LIST*
D10*
X8890000Y-3810000D02*
X12700000Y-3810000D01*
X13970000Y-5080000D02*
X13970000Y-7620000D01*
X12700000Y-8890000D02*
X8890000Y-8890000D01*
X7620000Y-7620000D02*
X7620000Y-5080000D01*
X12700000Y-8890000D02*
G75*
G03*
X13970000Y-7620000I0J1270000D01*
G01*
X8890000Y-3810000D02*
G75*
G03*
X7620000Y-5080000I0J-1270000D01*
G01*
X13970000Y-5080000D02*
G75*
G03*
X12700000Y-3810000I-1270000J0D01*
G01*
X7620000Y-7620000D02*
G75*
G03*
X8890000Y-8890000I1270000J0D01*
G01*
D11*
D12*
X13747000Y-5809500D02*
X13812000Y-5874500D01*
X13812000Y-5809500D02*
X13747000Y-5874500D01*
X13747000Y-5936500D02*
X13812000Y-6001500D01*
X13812000Y-5936500D02*
X13747000Y-6001500D01*
X13747000Y-6063500D02*
X13812000Y-6128500D01*
X13812000Y-6063500D02*
X13747000Y-6128500D01*
X13747000Y-6190500D02*
X13812000Y-6255500D01*
X13812000Y-6190500D02*
X13747000Y-6255500D01*
X13747000Y-6317500D02*
X13812000Y-6382500D01*
X13812000Y-6317500D02*
X13747000Y-6382500D01*
X13747000Y-6444500D02*
X13812000Y-6509500D01*
X13812000Y-6444500D02*
X13747000Y-6509500D01*
X13747000Y-6571500D02*
X13812000Y-6636500D01*
X13812000Y-6571500D02*
X13747000Y-6636500D01*
D13*
X8574400Y-4927600D02*
G75*
G03*
X8574400Y-4927600I-40000J0D01*
G01*
X8574400Y-5943600D02*
G75*
G03*
X8574400Y-5943600I-40000J0D01*
G01*
X8803000Y-4114800D02*
G75*
G03*
X8803000Y-4114800I-40000J0D01*
G01*
X8866500Y-7132000D02*
G75*
G03*
X8866500Y-7132000I-40000J0D01*
G01*
X8866500Y-7620000D02*
G75*
G03*
X8866500Y-7620000I-40000J0D01*
G01*
X8993500Y-4572000D02*
G75*
G03*
X8993500Y-4572000I-40000J0D01*
G01*
X8993500Y-5334000D02*
G75*
G03*
X8993500Y-5334000I-40000J0D01*
G01*
X9247500Y-4572000D02*
G75*
G03*
X9247500Y-4572000I-40000J0D01*
G01*
X9247500Y-5334000D02*
G75*
G03*
X9247500Y-5334000I-40000J0D01*
G01*
X9438000Y-6883400D02*
G75*
G03*
X9438000Y-6883400I-40000J0D01*
G01*
X9438000Y-7133400D02*
G75*
G03*
X9438000Y-7133400I-40000J0D01*
G01*
X9438000Y-7560500D02*
G75*
G03*
X9438000Y-7560500I-40000J0D01*
G01*
X9438000Y-7810500D02*
G75*
G03*
X9438000Y-7810500I-40000J0D01*
G01*
X9501500Y-4572000D02*
G75*
G03*
X9501500Y-4572000I-40000J0D01*
G01*
X9501500Y-5334000D02*
G75*
G03*
X9501500Y-5334000I-40000J0D01*
G01*
X9755500Y-4572000D02*
G75*
G03*
X9755500Y-4572000I-40000J0D01*
G01*
X9755500Y-5334000D02*
G75*
G03*
X9755500Y-5334000I-40000J0D01*
G01*
X9819000Y-4114800D02*
G75*
G03*
X9819000Y-4114800I-40000J0D01*
G01*
X10200000Y-6032500D02*
G75*
G03*
X10200000Y-6032500I-40000J0D01*
G01*
X10200000Y-6286500D02*
G75*
G03*
X10200000Y-6286500I-40000J0D01*
G01*
X10200000Y-6540500D02*
G75*
G03*
X10200000Y-6540500I-40000J0D01*
G01*
X10200000Y-6794500D02*
G75*
G03*
X10200000Y-6794500I-40000J0D01*
G01*
X10200000Y-7048500D02*
G75*
G03*
X10200000Y-7048500I-40000J0D01*
G01*
X10200000Y-7302500D02*
G75*
G03*
X10200000Y-7302500I-40000J0D01*
G01*
X10200000Y-7556500D02*
G75*
G03*
X10200000Y-7556500I-40000J0D01*
G01*
X10200000Y-7810500D02*
G75*
G03*
X10200000Y-7810500I-40000J0D01*
G01*
X10200000Y-8064500D02*
G75*
G03*
X10200000Y-8064500I-40000J0D01*
G01*
X10708000Y-4927600D02*
G75*
G03*
X10708000Y-4927600I-40000J0D01*
G01*
X10708000Y-5524500D02*
G75*
G03*
X10708000Y-5524500I-40000J0D01*
G01*
X10962000Y-6032500D02*
G75*
G03*
X10962000Y-6032500I-40000J0D01*
G01*
X10962000Y-6286500D02*
G75*
G03*
X10962000Y-6286500I-40000J0D01*
G01*
X10962000Y-6540500D02*
G75*
G03*
X10962000Y-6540500I-40000J0D01*
G01*
X10962000Y-6794500D02*
G75*
G03*
X10962000Y-6794500I-40000J0D01*
G01*
X10962000Y-7048500D02*
G75*
G03*
X10962000Y-7048500I-40000J0D01*
G01*
X10962000Y-7302500D02*
G75*
G03*
X10962000Y-7302500I-40000J0D01*
G01*
X10962000Y-7556500D02*
G75*
G03*
X10962000Y-7556500I-40000J0D01*
G01*
X10962000Y-7810500D02*
G75*
G03*
X10962000Y-7810500I-40000J0D01*
G01*
X10962000Y-8064500D02*
G75*
G03*
X10962000Y-8064500I-40000J0D01*
G01*
X11724000Y-4927600D02*
G75*
G03*
X11724000Y-4927600I-40000J0D01*
G01*
X11724000Y-5524500D02*
G75*
G03*
X11724000Y-5524500I-40000J0D01*
G01*
X12536800Y-5033200D02*
G75*
G03*
X12536800Y-5033200I-40000J0D01*
G01*
X12536800Y-5283200D02*
G75*
G03*
X12536800Y-5283200I-40000J0D01*
G01*
X12943200Y-5033200D02*
G75*
G03*
X12943200Y-5033200I-40000J0D01*
G01*
X12943200Y-5283200D02*
G75*
G03*
X12943200Y-5283200I-40000J0D01*
G01*
X13349600Y-5033200D02*
G75*
G03*
X13349600Y-5033200I-40000J0D01*
G01*
X13349600Y-5283200D02*
G75*
G03*
X13349600Y-5283200I-40000J0D01*
G01*
D14*
X12268200Y-4501600D02*
X12268200Y-4591600D01*
X12223200Y-4546600D02*
X12313200Y-4546600D01*
X12522200Y-4501600D02*
X12522200Y-4591600D01*
X12477200Y-4546600D02*
X12567200Y-4546600D01*
D15*
X10153171Y-4204491D02*
X10153171Y-4126709D01*
X10075389Y-4126709D01*
X10075389Y-4204491D01*
X10153171Y-4204491D01*
X10407171Y-4204491D02*
X10407171Y-4126709D01*
X10329389Y-4126709D01*
X10329389Y-4204491D01*
X10407171Y-4204491D01*
X10864371Y-4204491D02*
X10864371Y-4126709D01*
X10786589Y-4126709D01*
X10786589Y-4204491D01*
X10864371Y-4204491D01*
X11118371Y-4204491D02*
X11118371Y-4126709D01*
X11040589Y-4126709D01*
X11040589Y-4204491D01*
X11118371Y-4204491D01*
X11600971Y-4204491D02*
X11600971Y-4126709D01*
X11523189Y-4126709D01*
X11523189Y-4204491D01*
X11600971Y-4204491D01*
X11854971Y-4204491D02*
X11854971Y-4126709D01*
X11777189Y-4126709D01*
X11777189Y-4204491D01*
X11854971Y-4204491D01*
D11*
X7873277Y-9208984D02*
X7873277Y-9008984D01*
X7873277Y-9008984D02*
X7920896Y-9008984D01*
X7920896Y-9008984D02*
X7949467Y-9018508D01*
X7949467Y-9018508D02*
X7968515Y-9037555D01*
X7968515Y-9037555D02*
X7978039Y-9056603D01*
X7978039Y-9056603D02*
X7987562Y-9094698D01*
X7987562Y-9094698D02*
X7987562Y-9123270D01*
X7987562Y-9123270D02*
X7978039Y-9161365D01*
X7978039Y-9161365D02*
X7968515Y-9180412D01*
X7968515Y-9180412D02*
X7949467Y-9199460D01*
X7949467Y-9199460D02*
X7920896Y-9208984D01*
X7920896Y-9208984D02*
X7873277Y-9208984D01*
X8073277Y-9208984D02*
X8073277Y-9075650D01*
X8073277Y-9113746D02*
X8082801Y-9094698D01*
X8082801Y-9094698D02*
X8092324Y-9085174D01*
X8092324Y-9085174D02*
X8111372Y-9075650D01*
X8111372Y-9075650D02*
X8130420Y-9075650D01*
X8197086Y-9208984D02*
X8197086Y-9075650D01*
X8197086Y-9008984D02*
X8187562Y-9018508D01*
X8187562Y-9018508D02*
X8197086Y-9028031D01*
X8197086Y-9028031D02*
X8206610Y-9018508D01*
X8206610Y-9018508D02*
X8197086Y-9008984D01*
X8197086Y-9008984D02*
X8197086Y-9028031D01*
X8320896Y-9208984D02*
X8301848Y-9199460D01*
X8301848Y-9199460D02*
X8292324Y-9180412D01*
X8292324Y-9180412D02*
X8292324Y-9008984D01*
X8425658Y-9208984D02*
X8406610Y-9199460D01*
X8406610Y-9199460D02*
X8397086Y-9180412D01*
X8397086Y-9180412D02*
X8397086Y-9008984D01*
X8654229Y-9208984D02*
X8654229Y-9008984D01*
X8654229Y-9008984D02*
X8720896Y-9151841D01*
X8720896Y-9151841D02*
X8787563Y-9008984D01*
X8787563Y-9008984D02*
X8787563Y-9208984D01*
X8968515Y-9208984D02*
X8968515Y-9104222D01*
X8968515Y-9104222D02*
X8958991Y-9085174D01*
X8958991Y-9085174D02*
X8939944Y-9075650D01*
X8939944Y-9075650D02*
X8901848Y-9075650D01*
X8901848Y-9075650D02*
X8882801Y-9085174D01*
X8968515Y-9199460D02*
X8949467Y-9208984D01*
X8949467Y-9208984D02*
X8901848Y-9208984D01*
X8901848Y-9208984D02*
X8882801Y-9199460D01*
X8882801Y-9199460D02*
X8873277Y-9180412D01*
X8873277Y-9180412D02*
X8873277Y-9161365D01*
X8873277Y-9161365D02*
X8882801Y-9142317D01*
X8882801Y-9142317D02*
X8901848Y-9132793D01*
X8901848Y-9132793D02*
X8949467Y-9132793D01*
X8949467Y-9132793D02*
X8968515Y-9123270D01*
X9063753Y-9075650D02*
X9063753Y-9275650D01*
X9063753Y-9085174D02*
X9082801Y-9075650D01*
X9082801Y-9075650D02*
X9120896Y-9075650D01*
X9120896Y-9075650D02*
X9139944Y-9085174D01*
X9139944Y-9085174D02*
X9149467Y-9094698D01*
X9149467Y-9094698D02*
X9158991Y-9113746D01*
X9158991Y-9113746D02*
X9158991Y-9170889D01*
X9158991Y-9170889D02*
X9149467Y-9189936D01*
X9149467Y-9189936D02*
X9139944Y-9199460D01*
X9139944Y-9199460D02*
X9120896Y-9208984D01*
X9120896Y-9208984D02*
X9082801Y-9208984D01*
X9082801Y-9208984D02*
X9063753Y-9199460D01*
X9244705Y-9189936D02*
X9254229Y-9199460D01*
X9254229Y-9199460D02*
X9244705Y-9208984D01*
X9244705Y-9208984D02*
X9235182Y-9199460D01*
X9235182Y-9199460D02*
X9244705Y-9189936D01*
X9244705Y-9189936D02*
X9244705Y-9208984D01*
X9244705Y-9085174D02*
X9254229Y-9094698D01*
X9254229Y-9094698D02*
X9244705Y-9104222D01*
X9244705Y-9104222D02*
X9235182Y-9094698D01*
X9235182Y-9094698D02*
X9244705Y-9085174D01*
X9244705Y-9085174D02*
X9244705Y-9104222D01*
D12*
X7547500Y-9505000D02*
X7612500Y-9570000D01*
X7612500Y-9505000D02*
X7547500Y-9570000D01*
D11*
X7911372Y-9428984D02*
X7930420Y-9428984D01*
X7930420Y-9428984D02*
X7949467Y-9438508D01*
X7949467Y-9438508D02*
X7958991Y-9448031D01*
X7958991Y-9448031D02*
X7968515Y-9467079D01*
X7968515Y-9467079D02*
X7978039Y-9505174D01*
X7978039Y-9505174D02*
X7978039Y-9552793D01*
X7978039Y-9552793D02*
X7968515Y-9590889D01*
X7968515Y-9590889D02*
X7958991Y-9609936D01*
X7958991Y-9609936D02*
X7949467Y-9619460D01*
X7949467Y-9619460D02*
X7930420Y-9628984D01*
X7930420Y-9628984D02*
X7911372Y-9628984D01*
X7911372Y-9628984D02*
X7892324Y-9619460D01*
X7892324Y-9619460D02*
X7882801Y-9609936D01*
X7882801Y-9609936D02*
X7873277Y-9590889D01*
X7873277Y-9590889D02*
X7863753Y-9552793D01*
X7863753Y-9552793D02*
X7863753Y-9505174D01*
X7863753Y-9505174D02*
X7873277Y-9467079D01*
X7873277Y-9467079D02*
X7882801Y-9448031D01*
X7882801Y-9448031D02*
X7892324Y-9438508D01*
X7892324Y-9438508D02*
X7911372Y-9428984D01*
X8063753Y-9609936D02*
X8073277Y-9619460D01*
X8073277Y-9619460D02*
X8063753Y-9628984D01*
X8063753Y-9628984D02*
X8054229Y-9619460D01*
X8054229Y-9619460D02*
X8063753Y-9609936D01*
X8063753Y-9609936D02*
X8063753Y-9628984D01*
X8244705Y-9428984D02*
X8206610Y-9428984D01*
X8206610Y-9428984D02*
X8187562Y-9438508D01*
X8187562Y-9438508D02*
X8178039Y-9448031D01*
X8178039Y-9448031D02*
X8158991Y-9476603D01*
X8158991Y-9476603D02*
X8149467Y-9514698D01*
X8149467Y-9514698D02*
X8149467Y-9590889D01*
X8149467Y-9590889D02*
X8158991Y-9609936D01*
X8158991Y-9609936D02*
X8168515Y-9619460D01*
X8168515Y-9619460D02*
X8187562Y-9628984D01*
X8187562Y-9628984D02*
X8225658Y-9628984D01*
X8225658Y-9628984D02*
X8244705Y-9619460D01*
X8244705Y-9619460D02*
X8254229Y-9609936D01*
X8254229Y-9609936D02*
X8263753Y-9590889D01*
X8263753Y-9590889D02*
X8263753Y-9543270D01*
X8263753Y-9543270D02*
X8254229Y-9524222D01*
X8254229Y-9524222D02*
X8244705Y-9514698D01*
X8244705Y-9514698D02*
X8225658Y-9505174D01*
X8225658Y-9505174D02*
X8187562Y-9505174D01*
X8187562Y-9505174D02*
X8168515Y-9514698D01*
X8168515Y-9514698D02*
X8158991Y-9524222D01*
X8158991Y-9524222D02*
X8149467Y-9543270D01*
X8444705Y-9428984D02*
X8349467Y-9428984D01*
X8349467Y-9428984D02*
X8339943Y-9524222D01*
X8339943Y-9524222D02*
X8349467Y-9514698D01*
X8349467Y-9514698D02*
X8368515Y-9505174D01*
X8368515Y-9505174D02*
X8416134Y-9505174D01*
X8416134Y-9505174D02*
X8435182Y-9514698D01*
X8435182Y-9514698D02*
X8444705Y-9524222D01*
X8444705Y-9524222D02*
X8454229Y-9543270D01*
X8454229Y-9543270D02*
X8454229Y-9590889D01*
X8454229Y-9590889D02*
X8444705Y-9609936D01*
X8444705Y-9609936D02*
X8435182Y-9619460D01*
X8435182Y-9619460D02*
X8416134Y-9628984D01*
X8416134Y-9628984D02*
X8368515Y-9628984D01*
X8368515Y-9628984D02*
X8349467Y-9619460D01*
X8349467Y-9619460D02*
X8339943Y-9609936D01*
X8578039Y-9428984D02*
X8597086Y-9428984D01*
X8597086Y-9428984D02*
X8616134Y-9438508D01*
X8616134Y-9438508D02*
X8625658Y-9448031D01*
X8625658Y-9448031D02*
X8635182Y-9467079D01*
X8635182Y-9467079D02*
X8644705Y-9505174D01*
X8644705Y-9505174D02*
X8644705Y-9552793D01*
X8644705Y-9552793D02*
X8635182Y-9590889D01*
X8635182Y-9590889D02*
X8625658Y-9609936D01*
X8625658Y-9609936D02*
X8616134Y-9619460D01*
X8616134Y-9619460D02*
X8597086Y-9628984D01*
X8597086Y-9628984D02*
X8578039Y-9628984D01*
X8578039Y-9628984D02*
X8558991Y-9619460D01*
X8558991Y-9619460D02*
X8549467Y-9609936D01*
X8549467Y-9609936D02*
X8539944Y-9590889D01*
X8539944Y-9590889D02*
X8530420Y-9552793D01*
X8530420Y-9552793D02*
X8530420Y-9505174D01*
X8530420Y-9505174D02*
X8539944Y-9467079D01*
X8539944Y-9467079D02*
X8549467Y-9448031D01*
X8549467Y-9448031D02*
X8558991Y-9438508D01*
X8558991Y-9438508D02*
X8578039Y-9428984D01*
X8730420Y-9628984D02*
X8730420Y-9495650D01*
X8730420Y-9514698D02*
X8739944Y-9505174D01*
X8739944Y-9505174D02*
X8758991Y-9495650D01*
X8758991Y-9495650D02*
X8787563Y-9495650D01*
X8787563Y-9495650D02*
X8806610Y-9505174D01*
X8806610Y-9505174D02*
X8816134Y-9524222D01*
X8816134Y-9524222D02*
X8816134Y-9628984D01*
X8816134Y-9524222D02*
X8825658Y-9505174D01*
X8825658Y-9505174D02*
X8844705Y-9495650D01*
X8844705Y-9495650D02*
X8873277Y-9495650D01*
X8873277Y-9495650D02*
X8892325Y-9505174D01*
X8892325Y-9505174D02*
X8901848Y-9524222D01*
X8901848Y-9524222D02*
X8901848Y-9628984D01*
X8997086Y-9628984D02*
X8997086Y-9495650D01*
X8997086Y-9514698D02*
X9006610Y-9505174D01*
X9006610Y-9505174D02*
X9025658Y-9495650D01*
X9025658Y-9495650D02*
X9054229Y-9495650D01*
X9054229Y-9495650D02*
X9073277Y-9505174D01*
X9073277Y-9505174D02*
X9082801Y-9524222D01*
X9082801Y-9524222D02*
X9082801Y-9628984D01*
X9082801Y-9524222D02*
X9092325Y-9505174D01*
X9092325Y-9505174D02*
X9111372Y-9495650D01*
X9111372Y-9495650D02*
X9139944Y-9495650D01*
X9139944Y-9495650D02*
X9158991Y-9505174D01*
X9158991Y-9505174D02*
X9168515Y-9524222D01*
X9168515Y-9524222D02*
X9168515Y-9628984D01*
X9558991Y-9419460D02*
X9387563Y-9676603D01*
X9816134Y-9428984D02*
X9835182Y-9428984D01*
X9835182Y-9428984D02*
X9854229Y-9438508D01*
X9854229Y-9438508D02*
X9863753Y-9448031D01*
X9863753Y-9448031D02*
X9873277Y-9467079D01*
X9873277Y-9467079D02*
X9882801Y-9505174D01*
X9882801Y-9505174D02*
X9882801Y-9552793D01*
X9882801Y-9552793D02*
X9873277Y-9590889D01*
X9873277Y-9590889D02*
X9863753Y-9609936D01*
X9863753Y-9609936D02*
X9854229Y-9619460D01*
X9854229Y-9619460D02*
X9835182Y-9628984D01*
X9835182Y-9628984D02*
X9816134Y-9628984D01*
X9816134Y-9628984D02*
X9797087Y-9619460D01*
X9797087Y-9619460D02*
X9787563Y-9609936D01*
X9787563Y-9609936D02*
X9778039Y-9590889D01*
X9778039Y-9590889D02*
X9768515Y-9552793D01*
X9768515Y-9552793D02*
X9768515Y-9505174D01*
X9768515Y-9505174D02*
X9778039Y-9467079D01*
X9778039Y-9467079D02*
X9787563Y-9448031D01*
X9787563Y-9448031D02*
X9797087Y-9438508D01*
X9797087Y-9438508D02*
X9816134Y-9428984D01*
X9968515Y-9609936D02*
X9978039Y-9619460D01*
X9978039Y-9619460D02*
X9968515Y-9628984D01*
X9968515Y-9628984D02*
X9958991Y-9619460D01*
X9958991Y-9619460D02*
X9968515Y-9609936D01*
X9968515Y-9609936D02*
X9968515Y-9628984D01*
X10101848Y-9428984D02*
X10120896Y-9428984D01*
X10120896Y-9428984D02*
X10139944Y-9438508D01*
X10139944Y-9438508D02*
X10149468Y-9448031D01*
X10149468Y-9448031D02*
X10158991Y-9467079D01*
X10158991Y-9467079D02*
X10168515Y-9505174D01*
X10168515Y-9505174D02*
X10168515Y-9552793D01*
X10168515Y-9552793D02*
X10158991Y-9590889D01*
X10158991Y-9590889D02*
X10149468Y-9609936D01*
X10149468Y-9609936D02*
X10139944Y-9619460D01*
X10139944Y-9619460D02*
X10120896Y-9628984D01*
X10120896Y-9628984D02*
X10101848Y-9628984D01*
X10101848Y-9628984D02*
X10082801Y-9619460D01*
X10082801Y-9619460D02*
X10073277Y-9609936D01*
X10073277Y-9609936D02*
X10063753Y-9590889D01*
X10063753Y-9590889D02*
X10054229Y-9552793D01*
X10054229Y-9552793D02*
X10054229Y-9505174D01*
X10054229Y-9505174D02*
X10063753Y-9467079D01*
X10063753Y-9467079D02*
X10073277Y-9448031D01*
X10073277Y-9448031D02*
X10082801Y-9438508D01*
X10082801Y-9438508D02*
X10101848Y-9428984D01*
X10244706Y-9448031D02*
X10254229Y-9438508D01*
X10254229Y-9438508D02*
X10273277Y-9428984D01*
X10273277Y-9428984D02*
X10320896Y-9428984D01*
X10320896Y-9428984D02*
X10339944Y-9438508D01*
X10339944Y-9438508D02*
X10349468Y-9448031D01*
X10349468Y-9448031D02*
X10358991Y-9467079D01*
X10358991Y-9467079D02*
X10358991Y-9486127D01*
X10358991Y-9486127D02*
X10349468Y-9514698D01*
X10349468Y-9514698D02*
X10235182Y-9628984D01*
X10235182Y-9628984D02*
X10358991Y-9628984D01*
X10539944Y-9428984D02*
X10444706Y-9428984D01*
X10444706Y-9428984D02*
X10435182Y-9524222D01*
X10435182Y-9524222D02*
X10444706Y-9514698D01*
X10444706Y-9514698D02*
X10463753Y-9505174D01*
X10463753Y-9505174D02*
X10511372Y-9505174D01*
X10511372Y-9505174D02*
X10530420Y-9514698D01*
X10530420Y-9514698D02*
X10539944Y-9524222D01*
X10539944Y-9524222D02*
X10549468Y-9543270D01*
X10549468Y-9543270D02*
X10549468Y-9590889D01*
X10549468Y-9590889D02*
X10539944Y-9609936D01*
X10539944Y-9609936D02*
X10530420Y-9619460D01*
X10530420Y-9619460D02*
X10511372Y-9628984D01*
X10511372Y-9628984D02*
X10463753Y-9628984D01*
X10463753Y-9628984D02*
X10444706Y-9619460D01*
X10444706Y-9619460D02*
X10435182Y-9609936D01*
X10720896Y-9428984D02*
X10682801Y-9428984D01*
X10682801Y-9428984D02*
X10663753Y-9438508D01*
X10663753Y-9438508D02*
X10654229Y-9448031D01*
X10654229Y-9448031D02*
X10635182Y-9476603D01*
X10635182Y-9476603D02*
X10625658Y-9514698D01*
X10625658Y-9514698D02*
X10625658Y-9590889D01*
X10625658Y-9590889D02*
X10635182Y-9609936D01*
X10635182Y-9609936D02*
X10644706Y-9619460D01*
X10644706Y-9619460D02*
X10663753Y-9628984D01*
X10663753Y-9628984D02*
X10701849Y-9628984D01*
X10701849Y-9628984D02*
X10720896Y-9619460D01*
X10720896Y-9619460D02*
X10730420Y-9609936D01*
X10730420Y-9609936D02*
X10739944Y-9590889D01*
X10739944Y-9590889D02*
X10739944Y-9543270D01*
X10739944Y-9543270D02*
X10730420Y-9524222D01*
X10730420Y-9524222D02*
X10720896Y-9514698D01*
X10720896Y-9514698D02*
X10701849Y-9505174D01*
X10701849Y-9505174D02*
X10663753Y-9505174D01*
X10663753Y-9505174D02*
X10644706Y-9514698D01*
X10644706Y-9514698D02*
X10635182Y-9524222D01*
X10635182Y-9524222D02*
X10625658Y-9543270D01*
X10816134Y-9428984D02*
X10816134Y-9467079D01*
X10892325Y-9428984D02*
X10892325Y-9467079D01*
X11187563Y-9705174D02*
X11178039Y-9695650D01*
X11178039Y-9695650D02*
X11158991Y-9667079D01*
X11158991Y-9667079D02*
X11149468Y-9648031D01*
X11149468Y-9648031D02*
X11139944Y-9619460D01*
X11139944Y-9619460D02*
X11130420Y-9571841D01*
X11130420Y-9571841D02*
X11130420Y-9533746D01*
X11130420Y-9533746D02*
X11139944Y-9486127D01*
X11139944Y-9486127D02*
X11149468Y-9457555D01*
X11149468Y-9457555D02*
X11158991Y-9438508D01*
X11158991Y-9438508D02*
X11178039Y-9409936D01*
X11178039Y-9409936D02*
X11187563Y-9400412D01*
X11244706Y-9428984D02*
X11378039Y-9428984D01*
X11378039Y-9428984D02*
X11292325Y-9628984D01*
X11606610Y-9628984D02*
X11606610Y-9428984D01*
X11692325Y-9628984D02*
X11692325Y-9524222D01*
X11692325Y-9524222D02*
X11682801Y-9505174D01*
X11682801Y-9505174D02*
X11663753Y-9495650D01*
X11663753Y-9495650D02*
X11635182Y-9495650D01*
X11635182Y-9495650D02*
X11616134Y-9505174D01*
X11616134Y-9505174D02*
X11606610Y-9514698D01*
X11816134Y-9628984D02*
X11797087Y-9619460D01*
X11797087Y-9619460D02*
X11787563Y-9609936D01*
X11787563Y-9609936D02*
X11778039Y-9590889D01*
X11778039Y-9590889D02*
X11778039Y-9533746D01*
X11778039Y-9533746D02*
X11787563Y-9514698D01*
X11787563Y-9514698D02*
X11797087Y-9505174D01*
X11797087Y-9505174D02*
X11816134Y-9495650D01*
X11816134Y-9495650D02*
X11844706Y-9495650D01*
X11844706Y-9495650D02*
X11863753Y-9505174D01*
X11863753Y-9505174D02*
X11873277Y-9514698D01*
X11873277Y-9514698D02*
X11882801Y-9533746D01*
X11882801Y-9533746D02*
X11882801Y-9590889D01*
X11882801Y-9590889D02*
X11873277Y-9609936D01*
X11873277Y-9609936D02*
X11863753Y-9619460D01*
X11863753Y-9619460D02*
X11844706Y-9628984D01*
X11844706Y-9628984D02*
X11816134Y-9628984D01*
X11997087Y-9628984D02*
X11978039Y-9619460D01*
X11978039Y-9619460D02*
X11968515Y-9600412D01*
X11968515Y-9600412D02*
X11968515Y-9428984D01*
X12149468Y-9619460D02*
X12130420Y-9628984D01*
X12130420Y-9628984D02*
X12092325Y-9628984D01*
X12092325Y-9628984D02*
X12073277Y-9619460D01*
X12073277Y-9619460D02*
X12063753Y-9600412D01*
X12063753Y-9600412D02*
X12063753Y-9524222D01*
X12063753Y-9524222D02*
X12073277Y-9505174D01*
X12073277Y-9505174D02*
X12092325Y-9495650D01*
X12092325Y-9495650D02*
X12130420Y-9495650D01*
X12130420Y-9495650D02*
X12149468Y-9505174D01*
X12149468Y-9505174D02*
X12158991Y-9524222D01*
X12158991Y-9524222D02*
X12158991Y-9543270D01*
X12158991Y-9543270D02*
X12063753Y-9562317D01*
X12235182Y-9619460D02*
X12254230Y-9628984D01*
X12254230Y-9628984D02*
X12292325Y-9628984D01*
X12292325Y-9628984D02*
X12311372Y-9619460D01*
X12311372Y-9619460D02*
X12320896Y-9600412D01*
X12320896Y-9600412D02*
X12320896Y-9590889D01*
X12320896Y-9590889D02*
X12311372Y-9571841D01*
X12311372Y-9571841D02*
X12292325Y-9562317D01*
X12292325Y-9562317D02*
X12263753Y-9562317D01*
X12263753Y-9562317D02*
X12244706Y-9552793D01*
X12244706Y-9552793D02*
X12235182Y-9533746D01*
X12235182Y-9533746D02*
X12235182Y-9524222D01*
X12235182Y-9524222D02*
X12244706Y-9505174D01*
X12244706Y-9505174D02*
X12263753Y-9495650D01*
X12263753Y-9495650D02*
X12292325Y-9495650D01*
X12292325Y-9495650D02*
X12311372Y-9505174D01*
X12387563Y-9705174D02*
X12397087Y-9695650D01*
X12397087Y-9695650D02*
X12416134Y-9667079D01*
X12416134Y-9667079D02*
X12425658Y-9648031D01*
X12425658Y-9648031D02*
X12435182Y-9619460D01*
X12435182Y-9619460D02*
X12444706Y-9571841D01*
X12444706Y-9571841D02*
X12444706Y-9533746D01*
X12444706Y-9533746D02*
X12435182Y-9486127D01*
X12435182Y-9486127D02*
X12425658Y-9457555D01*
X12425658Y-9457555D02*
X12416134Y-9438508D01*
X12416134Y-9438508D02*
X12397087Y-9409936D01*
X12397087Y-9409936D02*
X12387563Y-9400412D01*
D13*
X7612500Y-9801500D02*
G75*
G03*
X7612500Y-9801500I-40000J0D01*
G01*
D11*
X7911372Y-9692984D02*
X7930420Y-9692984D01*
X7930420Y-9692984D02*
X7949467Y-9702508D01*
X7949467Y-9702508D02*
X7958991Y-9712031D01*
X7958991Y-9712031D02*
X7968515Y-9731079D01*
X7968515Y-9731079D02*
X7978039Y-9769174D01*
X7978039Y-9769174D02*
X7978039Y-9816793D01*
X7978039Y-9816793D02*
X7968515Y-9854889D01*
X7968515Y-9854889D02*
X7958991Y-9873936D01*
X7958991Y-9873936D02*
X7949467Y-9883460D01*
X7949467Y-9883460D02*
X7930420Y-9892984D01*
X7930420Y-9892984D02*
X7911372Y-9892984D01*
X7911372Y-9892984D02*
X7892324Y-9883460D01*
X7892324Y-9883460D02*
X7882801Y-9873936D01*
X7882801Y-9873936D02*
X7873277Y-9854889D01*
X7873277Y-9854889D02*
X7863753Y-9816793D01*
X7863753Y-9816793D02*
X7863753Y-9769174D01*
X7863753Y-9769174D02*
X7873277Y-9731079D01*
X7873277Y-9731079D02*
X7882801Y-9712031D01*
X7882801Y-9712031D02*
X7892324Y-9702508D01*
X7892324Y-9702508D02*
X7911372Y-9692984D01*
X8063753Y-9873936D02*
X8073277Y-9883460D01*
X8073277Y-9883460D02*
X8063753Y-9892984D01*
X8063753Y-9892984D02*
X8054229Y-9883460D01*
X8054229Y-9883460D02*
X8063753Y-9873936D01*
X8063753Y-9873936D02*
X8063753Y-9892984D01*
X8187562Y-9778698D02*
X8168515Y-9769174D01*
X8168515Y-9769174D02*
X8158991Y-9759650D01*
X8158991Y-9759650D02*
X8149467Y-9740603D01*
X8149467Y-9740603D02*
X8149467Y-9731079D01*
X8149467Y-9731079D02*
X8158991Y-9712031D01*
X8158991Y-9712031D02*
X8168515Y-9702508D01*
X8168515Y-9702508D02*
X8187562Y-9692984D01*
X8187562Y-9692984D02*
X8225658Y-9692984D01*
X8225658Y-9692984D02*
X8244705Y-9702508D01*
X8244705Y-9702508D02*
X8254229Y-9712031D01*
X8254229Y-9712031D02*
X8263753Y-9731079D01*
X8263753Y-9731079D02*
X8263753Y-9740603D01*
X8263753Y-9740603D02*
X8254229Y-9759650D01*
X8254229Y-9759650D02*
X8244705Y-9769174D01*
X8244705Y-9769174D02*
X8225658Y-9778698D01*
X8225658Y-9778698D02*
X8187562Y-9778698D01*
X8187562Y-9778698D02*
X8168515Y-9788222D01*
X8168515Y-9788222D02*
X8158991Y-9797746D01*
X8158991Y-9797746D02*
X8149467Y-9816793D01*
X8149467Y-9816793D02*
X8149467Y-9854889D01*
X8149467Y-9854889D02*
X8158991Y-9873936D01*
X8158991Y-9873936D02*
X8168515Y-9883460D01*
X8168515Y-9883460D02*
X8187562Y-9892984D01*
X8187562Y-9892984D02*
X8225658Y-9892984D01*
X8225658Y-9892984D02*
X8244705Y-9883460D01*
X8244705Y-9883460D02*
X8254229Y-9873936D01*
X8254229Y-9873936D02*
X8263753Y-9854889D01*
X8263753Y-9854889D02*
X8263753Y-9816793D01*
X8263753Y-9816793D02*
X8254229Y-9797746D01*
X8254229Y-9797746D02*
X8244705Y-9788222D01*
X8244705Y-9788222D02*
X8225658Y-9778698D01*
X8387562Y-9692984D02*
X8406610Y-9692984D01*
X8406610Y-9692984D02*
X8425658Y-9702508D01*
X8425658Y-9702508D02*
X8435182Y-9712031D01*
X8435182Y-9712031D02*
X8444705Y-9731079D01*
X8444705Y-9731079D02*
X8454229Y-9769174D01*
X8454229Y-9769174D02*
X8454229Y-9816793D01*
X8454229Y-9816793D02*
X8444705Y-9854889D01*
X8444705Y-9854889D02*
X8435182Y-9873936D01*
X8435182Y-9873936D02*
X8425658Y-9883460D01*
X8425658Y-9883460D02*
X8406610Y-9892984D01*
X8406610Y-9892984D02*
X8387562Y-9892984D01*
X8387562Y-9892984D02*
X8368515Y-9883460D01*
X8368515Y-9883460D02*
X8358991Y-9873936D01*
X8358991Y-9873936D02*
X8349467Y-9854889D01*
X8349467Y-9854889D02*
X8339943Y-9816793D01*
X8339943Y-9816793D02*
X8339943Y-9769174D01*
X8339943Y-9769174D02*
X8349467Y-9731079D01*
X8349467Y-9731079D02*
X8358991Y-9712031D01*
X8358991Y-9712031D02*
X8368515Y-9702508D01*
X8368515Y-9702508D02*
X8387562Y-9692984D01*
X8578039Y-9692984D02*
X8597086Y-9692984D01*
X8597086Y-9692984D02*
X8616134Y-9702508D01*
X8616134Y-9702508D02*
X8625658Y-9712031D01*
X8625658Y-9712031D02*
X8635182Y-9731079D01*
X8635182Y-9731079D02*
X8644705Y-9769174D01*
X8644705Y-9769174D02*
X8644705Y-9816793D01*
X8644705Y-9816793D02*
X8635182Y-9854889D01*
X8635182Y-9854889D02*
X8625658Y-9873936D01*
X8625658Y-9873936D02*
X8616134Y-9883460D01*
X8616134Y-9883460D02*
X8597086Y-9892984D01*
X8597086Y-9892984D02*
X8578039Y-9892984D01*
X8578039Y-9892984D02*
X8558991Y-9883460D01*
X8558991Y-9883460D02*
X8549467Y-9873936D01*
X8549467Y-9873936D02*
X8539944Y-9854889D01*
X8539944Y-9854889D02*
X8530420Y-9816793D01*
X8530420Y-9816793D02*
X8530420Y-9769174D01*
X8530420Y-9769174D02*
X8539944Y-9731079D01*
X8539944Y-9731079D02*
X8549467Y-9712031D01*
X8549467Y-9712031D02*
X8558991Y-9702508D01*
X8558991Y-9702508D02*
X8578039Y-9692984D01*
X8730420Y-9892984D02*
X8730420Y-9759650D01*
X8730420Y-9778698D02*
X8739944Y-9769174D01*
X8739944Y-9769174D02*
X8758991Y-9759650D01*
X8758991Y-9759650D02*
X8787563Y-9759650D01*
X8787563Y-9759650D02*
X8806610Y-9769174D01*
X8806610Y-9769174D02*
X8816134Y-9788222D01*
X8816134Y-9788222D02*
X8816134Y-9892984D01*
X8816134Y-9788222D02*
X8825658Y-9769174D01*
X8825658Y-9769174D02*
X8844705Y-9759650D01*
X8844705Y-9759650D02*
X8873277Y-9759650D01*
X8873277Y-9759650D02*
X8892325Y-9769174D01*
X8892325Y-9769174D02*
X8901848Y-9788222D01*
X8901848Y-9788222D02*
X8901848Y-9892984D01*
X8997086Y-9892984D02*
X8997086Y-9759650D01*
X8997086Y-9778698D02*
X9006610Y-9769174D01*
X9006610Y-9769174D02*
X9025658Y-9759650D01*
X9025658Y-9759650D02*
X9054229Y-9759650D01*
X9054229Y-9759650D02*
X9073277Y-9769174D01*
X9073277Y-9769174D02*
X9082801Y-9788222D01*
X9082801Y-9788222D02*
X9082801Y-9892984D01*
X9082801Y-9788222D02*
X9092325Y-9769174D01*
X9092325Y-9769174D02*
X9111372Y-9759650D01*
X9111372Y-9759650D02*
X9139944Y-9759650D01*
X9139944Y-9759650D02*
X9158991Y-9769174D01*
X9158991Y-9769174D02*
X9168515Y-9788222D01*
X9168515Y-9788222D02*
X9168515Y-9892984D01*
X9558991Y-9683460D02*
X9387563Y-9940603D01*
X9816134Y-9692984D02*
X9835182Y-9692984D01*
X9835182Y-9692984D02*
X9854229Y-9702508D01*
X9854229Y-9702508D02*
X9863753Y-9712031D01*
X9863753Y-9712031D02*
X9873277Y-9731079D01*
X9873277Y-9731079D02*
X9882801Y-9769174D01*
X9882801Y-9769174D02*
X9882801Y-9816793D01*
X9882801Y-9816793D02*
X9873277Y-9854889D01*
X9873277Y-9854889D02*
X9863753Y-9873936D01*
X9863753Y-9873936D02*
X9854229Y-9883460D01*
X9854229Y-9883460D02*
X9835182Y-9892984D01*
X9835182Y-9892984D02*
X9816134Y-9892984D01*
X9816134Y-9892984D02*
X9797087Y-9883460D01*
X9797087Y-9883460D02*
X9787563Y-9873936D01*
X9787563Y-9873936D02*
X9778039Y-9854889D01*
X9778039Y-9854889D02*
X9768515Y-9816793D01*
X9768515Y-9816793D02*
X9768515Y-9769174D01*
X9768515Y-9769174D02*
X9778039Y-9731079D01*
X9778039Y-9731079D02*
X9787563Y-9712031D01*
X9787563Y-9712031D02*
X9797087Y-9702508D01*
X9797087Y-9702508D02*
X9816134Y-9692984D01*
X9968515Y-9873936D02*
X9978039Y-9883460D01*
X9978039Y-9883460D02*
X9968515Y-9892984D01*
X9968515Y-9892984D02*
X9958991Y-9883460D01*
X9958991Y-9883460D02*
X9968515Y-9873936D01*
X9968515Y-9873936D02*
X9968515Y-9892984D01*
X10101848Y-9692984D02*
X10120896Y-9692984D01*
X10120896Y-9692984D02*
X10139944Y-9702508D01*
X10139944Y-9702508D02*
X10149468Y-9712031D01*
X10149468Y-9712031D02*
X10158991Y-9731079D01*
X10158991Y-9731079D02*
X10168515Y-9769174D01*
X10168515Y-9769174D02*
X10168515Y-9816793D01*
X10168515Y-9816793D02*
X10158991Y-9854889D01*
X10158991Y-9854889D02*
X10149468Y-9873936D01*
X10149468Y-9873936D02*
X10139944Y-9883460D01*
X10139944Y-9883460D02*
X10120896Y-9892984D01*
X10120896Y-9892984D02*
X10101848Y-9892984D01*
X10101848Y-9892984D02*
X10082801Y-9883460D01*
X10082801Y-9883460D02*
X10073277Y-9873936D01*
X10073277Y-9873936D02*
X10063753Y-9854889D01*
X10063753Y-9854889D02*
X10054229Y-9816793D01*
X10054229Y-9816793D02*
X10054229Y-9769174D01*
X10054229Y-9769174D02*
X10063753Y-9731079D01*
X10063753Y-9731079D02*
X10073277Y-9712031D01*
X10073277Y-9712031D02*
X10082801Y-9702508D01*
X10082801Y-9702508D02*
X10101848Y-9692984D01*
X10235182Y-9692984D02*
X10358991Y-9692984D01*
X10358991Y-9692984D02*
X10292325Y-9769174D01*
X10292325Y-9769174D02*
X10320896Y-9769174D01*
X10320896Y-9769174D02*
X10339944Y-9778698D01*
X10339944Y-9778698D02*
X10349468Y-9788222D01*
X10349468Y-9788222D02*
X10358991Y-9807270D01*
X10358991Y-9807270D02*
X10358991Y-9854889D01*
X10358991Y-9854889D02*
X10349468Y-9873936D01*
X10349468Y-9873936D02*
X10339944Y-9883460D01*
X10339944Y-9883460D02*
X10320896Y-9892984D01*
X10320896Y-9892984D02*
X10263753Y-9892984D01*
X10263753Y-9892984D02*
X10244706Y-9883460D01*
X10244706Y-9883460D02*
X10235182Y-9873936D01*
X10549468Y-9892984D02*
X10435182Y-9892984D01*
X10492325Y-9892984D02*
X10492325Y-9692984D01*
X10492325Y-9692984D02*
X10473277Y-9721555D01*
X10473277Y-9721555D02*
X10454229Y-9740603D01*
X10454229Y-9740603D02*
X10435182Y-9750127D01*
X10730420Y-9692984D02*
X10635182Y-9692984D01*
X10635182Y-9692984D02*
X10625658Y-9788222D01*
X10625658Y-9788222D02*
X10635182Y-9778698D01*
X10635182Y-9778698D02*
X10654229Y-9769174D01*
X10654229Y-9769174D02*
X10701849Y-9769174D01*
X10701849Y-9769174D02*
X10720896Y-9778698D01*
X10720896Y-9778698D02*
X10730420Y-9788222D01*
X10730420Y-9788222D02*
X10739944Y-9807270D01*
X10739944Y-9807270D02*
X10739944Y-9854889D01*
X10739944Y-9854889D02*
X10730420Y-9873936D01*
X10730420Y-9873936D02*
X10720896Y-9883460D01*
X10720896Y-9883460D02*
X10701849Y-9892984D01*
X10701849Y-9892984D02*
X10654229Y-9892984D01*
X10654229Y-9892984D02*
X10635182Y-9883460D01*
X10635182Y-9883460D02*
X10625658Y-9873936D01*
X10816134Y-9692984D02*
X10816134Y-9731079D01*
X10892325Y-9692984D02*
X10892325Y-9731079D01*
X11187563Y-9969174D02*
X11178039Y-9959650D01*
X11178039Y-9959650D02*
X11158991Y-9931079D01*
X11158991Y-9931079D02*
X11149468Y-9912031D01*
X11149468Y-9912031D02*
X11139944Y-9883460D01*
X11139944Y-9883460D02*
X11130420Y-9835841D01*
X11130420Y-9835841D02*
X11130420Y-9797746D01*
X11130420Y-9797746D02*
X11139944Y-9750127D01*
X11139944Y-9750127D02*
X11149468Y-9721555D01*
X11149468Y-9721555D02*
X11158991Y-9702508D01*
X11158991Y-9702508D02*
X11178039Y-9673936D01*
X11178039Y-9673936D02*
X11187563Y-9664412D01*
X11349468Y-9759650D02*
X11349468Y-9892984D01*
X11301848Y-9683460D02*
X11254229Y-9826317D01*
X11254229Y-9826317D02*
X11378039Y-9826317D01*
X11539944Y-9692984D02*
X11501848Y-9692984D01*
X11501848Y-9692984D02*
X11482801Y-9702508D01*
X11482801Y-9702508D02*
X11473277Y-9712031D01*
X11473277Y-9712031D02*
X11454229Y-9740603D01*
X11454229Y-9740603D02*
X11444706Y-9778698D01*
X11444706Y-9778698D02*
X11444706Y-9854889D01*
X11444706Y-9854889D02*
X11454229Y-9873936D01*
X11454229Y-9873936D02*
X11463753Y-9883460D01*
X11463753Y-9883460D02*
X11482801Y-9892984D01*
X11482801Y-9892984D02*
X11520896Y-9892984D01*
X11520896Y-9892984D02*
X11539944Y-9883460D01*
X11539944Y-9883460D02*
X11549468Y-9873936D01*
X11549468Y-9873936D02*
X11558991Y-9854889D01*
X11558991Y-9854889D02*
X11558991Y-9807270D01*
X11558991Y-9807270D02*
X11549468Y-9788222D01*
X11549468Y-9788222D02*
X11539944Y-9778698D01*
X11539944Y-9778698D02*
X11520896Y-9769174D01*
X11520896Y-9769174D02*
X11482801Y-9769174D01*
X11482801Y-9769174D02*
X11463753Y-9778698D01*
X11463753Y-9778698D02*
X11454229Y-9788222D01*
X11454229Y-9788222D02*
X11444706Y-9807270D01*
X11797087Y-9892984D02*
X11797087Y-9692984D01*
X11882801Y-9892984D02*
X11882801Y-9788222D01*
X11882801Y-9788222D02*
X11873277Y-9769174D01*
X11873277Y-9769174D02*
X11854230Y-9759650D01*
X11854230Y-9759650D02*
X11825658Y-9759650D01*
X11825658Y-9759650D02*
X11806610Y-9769174D01*
X11806610Y-9769174D02*
X11797087Y-9778698D01*
X12006610Y-9892984D02*
X11987563Y-9883460D01*
X11987563Y-9883460D02*
X11978039Y-9873936D01*
X11978039Y-9873936D02*
X11968515Y-9854889D01*
X11968515Y-9854889D02*
X11968515Y-9797746D01*
X11968515Y-9797746D02*
X11978039Y-9778698D01*
X11978039Y-9778698D02*
X11987563Y-9769174D01*
X11987563Y-9769174D02*
X12006610Y-9759650D01*
X12006610Y-9759650D02*
X12035182Y-9759650D01*
X12035182Y-9759650D02*
X12054230Y-9769174D01*
X12054230Y-9769174D02*
X12063753Y-9778698D01*
X12063753Y-9778698D02*
X12073277Y-9797746D01*
X12073277Y-9797746D02*
X12073277Y-9854889D01*
X12073277Y-9854889D02*
X12063753Y-9873936D01*
X12063753Y-9873936D02*
X12054230Y-9883460D01*
X12054230Y-9883460D02*
X12035182Y-9892984D01*
X12035182Y-9892984D02*
X12006610Y-9892984D01*
X12187563Y-9892984D02*
X12168515Y-9883460D01*
X12168515Y-9883460D02*
X12158991Y-9864412D01*
X12158991Y-9864412D02*
X12158991Y-9692984D01*
X12339944Y-9883460D02*
X12320896Y-9892984D01*
X12320896Y-9892984D02*
X12282801Y-9892984D01*
X12282801Y-9892984D02*
X12263753Y-9883460D01*
X12263753Y-9883460D02*
X12254230Y-9864412D01*
X12254230Y-9864412D02*
X12254230Y-9788222D01*
X12254230Y-9788222D02*
X12263753Y-9769174D01*
X12263753Y-9769174D02*
X12282801Y-9759650D01*
X12282801Y-9759650D02*
X12320896Y-9759650D01*
X12320896Y-9759650D02*
X12339944Y-9769174D01*
X12339944Y-9769174D02*
X12349468Y-9788222D01*
X12349468Y-9788222D02*
X12349468Y-9807270D01*
X12349468Y-9807270D02*
X12254230Y-9826317D01*
X12425658Y-9883460D02*
X12444706Y-9892984D01*
X12444706Y-9892984D02*
X12482801Y-9892984D01*
X12482801Y-9892984D02*
X12501849Y-9883460D01*
X12501849Y-9883460D02*
X12511372Y-9864412D01*
X12511372Y-9864412D02*
X12511372Y-9854889D01*
X12511372Y-9854889D02*
X12501849Y-9835841D01*
X12501849Y-9835841D02*
X12482801Y-9826317D01*
X12482801Y-9826317D02*
X12454230Y-9826317D01*
X12454230Y-9826317D02*
X12435182Y-9816793D01*
X12435182Y-9816793D02*
X12425658Y-9797746D01*
X12425658Y-9797746D02*
X12425658Y-9788222D01*
X12425658Y-9788222D02*
X12435182Y-9769174D01*
X12435182Y-9769174D02*
X12454230Y-9759650D01*
X12454230Y-9759650D02*
X12482801Y-9759650D01*
X12482801Y-9759650D02*
X12501849Y-9769174D01*
X12578039Y-9969174D02*
X12587563Y-9959650D01*
X12587563Y-9959650D02*
X12606611Y-9931079D01*
X12606611Y-9931079D02*
X12616134Y-9912031D01*
X12616134Y-9912031D02*
X12625658Y-9883460D01*
X12625658Y-9883460D02*
X12635182Y-9835841D01*
X12635182Y-9835841D02*
X12635182Y-9797746D01*
X12635182Y-9797746D02*
X12625658Y-9750127D01*
X12625658Y-9750127D02*
X12616134Y-9721555D01*
X12616134Y-9721555D02*
X12606611Y-9702508D01*
X12606611Y-9702508D02*
X12587563Y-9673936D01*
X12587563Y-9673936D02*
X12578039Y-9664412D01*
D14*
X7567500Y-10020500D02*
X7567500Y-10110500D01*
X7522500Y-10065500D02*
X7612500Y-10065500D01*
D11*
X7911372Y-9956984D02*
X7930420Y-9956984D01*
X7930420Y-9956984D02*
X7949467Y-9966508D01*
X7949467Y-9966508D02*
X7958991Y-9976031D01*
X7958991Y-9976031D02*
X7968515Y-9995079D01*
X7968515Y-9995079D02*
X7978039Y-10033174D01*
X7978039Y-10033174D02*
X7978039Y-10080793D01*
X7978039Y-10080793D02*
X7968515Y-10118889D01*
X7968515Y-10118889D02*
X7958991Y-10137936D01*
X7958991Y-10137936D02*
X7949467Y-10147460D01*
X7949467Y-10147460D02*
X7930420Y-10156984D01*
X7930420Y-10156984D02*
X7911372Y-10156984D01*
X7911372Y-10156984D02*
X7892324Y-10147460D01*
X7892324Y-10147460D02*
X7882801Y-10137936D01*
X7882801Y-10137936D02*
X7873277Y-10118889D01*
X7873277Y-10118889D02*
X7863753Y-10080793D01*
X7863753Y-10080793D02*
X7863753Y-10033174D01*
X7863753Y-10033174D02*
X7873277Y-9995079D01*
X7873277Y-9995079D02*
X7882801Y-9976031D01*
X7882801Y-9976031D02*
X7892324Y-9966508D01*
X7892324Y-9966508D02*
X7911372Y-9956984D01*
X8063753Y-10137936D02*
X8073277Y-10147460D01*
X8073277Y-10147460D02*
X8063753Y-10156984D01*
X8063753Y-10156984D02*
X8054229Y-10147460D01*
X8054229Y-10147460D02*
X8063753Y-10137936D01*
X8063753Y-10137936D02*
X8063753Y-10156984D01*
X8168515Y-10156984D02*
X8206610Y-10156984D01*
X8206610Y-10156984D02*
X8225658Y-10147460D01*
X8225658Y-10147460D02*
X8235182Y-10137936D01*
X8235182Y-10137936D02*
X8254229Y-10109365D01*
X8254229Y-10109365D02*
X8263753Y-10071270D01*
X8263753Y-10071270D02*
X8263753Y-9995079D01*
X8263753Y-9995079D02*
X8254229Y-9976031D01*
X8254229Y-9976031D02*
X8244705Y-9966508D01*
X8244705Y-9966508D02*
X8225658Y-9956984D01*
X8225658Y-9956984D02*
X8187562Y-9956984D01*
X8187562Y-9956984D02*
X8168515Y-9966508D01*
X8168515Y-9966508D02*
X8158991Y-9976031D01*
X8158991Y-9976031D02*
X8149467Y-9995079D01*
X8149467Y-9995079D02*
X8149467Y-10042698D01*
X8149467Y-10042698D02*
X8158991Y-10061746D01*
X8158991Y-10061746D02*
X8168515Y-10071270D01*
X8168515Y-10071270D02*
X8187562Y-10080793D01*
X8187562Y-10080793D02*
X8225658Y-10080793D01*
X8225658Y-10080793D02*
X8244705Y-10071270D01*
X8244705Y-10071270D02*
X8254229Y-10061746D01*
X8254229Y-10061746D02*
X8263753Y-10042698D01*
X8387562Y-9956984D02*
X8406610Y-9956984D01*
X8406610Y-9956984D02*
X8425658Y-9966508D01*
X8425658Y-9966508D02*
X8435182Y-9976031D01*
X8435182Y-9976031D02*
X8444705Y-9995079D01*
X8444705Y-9995079D02*
X8454229Y-10033174D01*
X8454229Y-10033174D02*
X8454229Y-10080793D01*
X8454229Y-10080793D02*
X8444705Y-10118889D01*
X8444705Y-10118889D02*
X8435182Y-10137936D01*
X8435182Y-10137936D02*
X8425658Y-10147460D01*
X8425658Y-10147460D02*
X8406610Y-10156984D01*
X8406610Y-10156984D02*
X8387562Y-10156984D01*
X8387562Y-10156984D02*
X8368515Y-10147460D01*
X8368515Y-10147460D02*
X8358991Y-10137936D01*
X8358991Y-10137936D02*
X8349467Y-10118889D01*
X8349467Y-10118889D02*
X8339943Y-10080793D01*
X8339943Y-10080793D02*
X8339943Y-10033174D01*
X8339943Y-10033174D02*
X8349467Y-9995079D01*
X8349467Y-9995079D02*
X8358991Y-9976031D01*
X8358991Y-9976031D02*
X8368515Y-9966508D01*
X8368515Y-9966508D02*
X8387562Y-9956984D01*
X8578039Y-9956984D02*
X8597086Y-9956984D01*
X8597086Y-9956984D02*
X8616134Y-9966508D01*
X8616134Y-9966508D02*
X8625658Y-9976031D01*
X8625658Y-9976031D02*
X8635182Y-9995079D01*
X8635182Y-9995079D02*
X8644705Y-10033174D01*
X8644705Y-10033174D02*
X8644705Y-10080793D01*
X8644705Y-10080793D02*
X8635182Y-10118889D01*
X8635182Y-10118889D02*
X8625658Y-10137936D01*
X8625658Y-10137936D02*
X8616134Y-10147460D01*
X8616134Y-10147460D02*
X8597086Y-10156984D01*
X8597086Y-10156984D02*
X8578039Y-10156984D01*
X8578039Y-10156984D02*
X8558991Y-10147460D01*
X8558991Y-10147460D02*
X8549467Y-10137936D01*
X8549467Y-10137936D02*
X8539944Y-10118889D01*
X8539944Y-10118889D02*
X8530420Y-10080793D01*
X8530420Y-10080793D02*
X8530420Y-10033174D01*
X8530420Y-10033174D02*
X8539944Y-9995079D01*
X8539944Y-9995079D02*
X8549467Y-9976031D01*
X8549467Y-9976031D02*
X8558991Y-9966508D01*
X8558991Y-9966508D02*
X8578039Y-9956984D01*
X8730420Y-10156984D02*
X8730420Y-10023650D01*
X8730420Y-10042698D02*
X8739944Y-10033174D01*
X8739944Y-10033174D02*
X8758991Y-10023650D01*
X8758991Y-10023650D02*
X8787563Y-10023650D01*
X8787563Y-10023650D02*
X8806610Y-10033174D01*
X8806610Y-10033174D02*
X8816134Y-10052222D01*
X8816134Y-10052222D02*
X8816134Y-10156984D01*
X8816134Y-10052222D02*
X8825658Y-10033174D01*
X8825658Y-10033174D02*
X8844705Y-10023650D01*
X8844705Y-10023650D02*
X8873277Y-10023650D01*
X8873277Y-10023650D02*
X8892325Y-10033174D01*
X8892325Y-10033174D02*
X8901848Y-10052222D01*
X8901848Y-10052222D02*
X8901848Y-10156984D01*
X8997086Y-10156984D02*
X8997086Y-10023650D01*
X8997086Y-10042698D02*
X9006610Y-10033174D01*
X9006610Y-10033174D02*
X9025658Y-10023650D01*
X9025658Y-10023650D02*
X9054229Y-10023650D01*
X9054229Y-10023650D02*
X9073277Y-10033174D01*
X9073277Y-10033174D02*
X9082801Y-10052222D01*
X9082801Y-10052222D02*
X9082801Y-10156984D01*
X9082801Y-10052222D02*
X9092325Y-10033174D01*
X9092325Y-10033174D02*
X9111372Y-10023650D01*
X9111372Y-10023650D02*
X9139944Y-10023650D01*
X9139944Y-10023650D02*
X9158991Y-10033174D01*
X9158991Y-10033174D02*
X9168515Y-10052222D01*
X9168515Y-10052222D02*
X9168515Y-10156984D01*
X9558991Y-9947460D02*
X9387563Y-10204603D01*
X9816134Y-9956984D02*
X9835182Y-9956984D01*
X9835182Y-9956984D02*
X9854229Y-9966508D01*
X9854229Y-9966508D02*
X9863753Y-9976031D01*
X9863753Y-9976031D02*
X9873277Y-9995079D01*
X9873277Y-9995079D02*
X9882801Y-10033174D01*
X9882801Y-10033174D02*
X9882801Y-10080793D01*
X9882801Y-10080793D02*
X9873277Y-10118889D01*
X9873277Y-10118889D02*
X9863753Y-10137936D01*
X9863753Y-10137936D02*
X9854229Y-10147460D01*
X9854229Y-10147460D02*
X9835182Y-10156984D01*
X9835182Y-10156984D02*
X9816134Y-10156984D01*
X9816134Y-10156984D02*
X9797087Y-10147460D01*
X9797087Y-10147460D02*
X9787563Y-10137936D01*
X9787563Y-10137936D02*
X9778039Y-10118889D01*
X9778039Y-10118889D02*
X9768515Y-10080793D01*
X9768515Y-10080793D02*
X9768515Y-10033174D01*
X9768515Y-10033174D02*
X9778039Y-9995079D01*
X9778039Y-9995079D02*
X9787563Y-9976031D01*
X9787563Y-9976031D02*
X9797087Y-9966508D01*
X9797087Y-9966508D02*
X9816134Y-9956984D01*
X9968515Y-10137936D02*
X9978039Y-10147460D01*
X9978039Y-10147460D02*
X9968515Y-10156984D01*
X9968515Y-10156984D02*
X9958991Y-10147460D01*
X9958991Y-10147460D02*
X9968515Y-10137936D01*
X9968515Y-10137936D02*
X9968515Y-10156984D01*
X10101848Y-9956984D02*
X10120896Y-9956984D01*
X10120896Y-9956984D02*
X10139944Y-9966508D01*
X10139944Y-9966508D02*
X10149468Y-9976031D01*
X10149468Y-9976031D02*
X10158991Y-9995079D01*
X10158991Y-9995079D02*
X10168515Y-10033174D01*
X10168515Y-10033174D02*
X10168515Y-10080793D01*
X10168515Y-10080793D02*
X10158991Y-10118889D01*
X10158991Y-10118889D02*
X10149468Y-10137936D01*
X10149468Y-10137936D02*
X10139944Y-10147460D01*
X10139944Y-10147460D02*
X10120896Y-10156984D01*
X10120896Y-10156984D02*
X10101848Y-10156984D01*
X10101848Y-10156984D02*
X10082801Y-10147460D01*
X10082801Y-10147460D02*
X10073277Y-10137936D01*
X10073277Y-10137936D02*
X10063753Y-10118889D01*
X10063753Y-10118889D02*
X10054229Y-10080793D01*
X10054229Y-10080793D02*
X10054229Y-10033174D01*
X10054229Y-10033174D02*
X10063753Y-9995079D01*
X10063753Y-9995079D02*
X10073277Y-9976031D01*
X10073277Y-9976031D02*
X10082801Y-9966508D01*
X10082801Y-9966508D02*
X10101848Y-9956984D01*
X10235182Y-9956984D02*
X10358991Y-9956984D01*
X10358991Y-9956984D02*
X10292325Y-10033174D01*
X10292325Y-10033174D02*
X10320896Y-10033174D01*
X10320896Y-10033174D02*
X10339944Y-10042698D01*
X10339944Y-10042698D02*
X10349468Y-10052222D01*
X10349468Y-10052222D02*
X10358991Y-10071270D01*
X10358991Y-10071270D02*
X10358991Y-10118889D01*
X10358991Y-10118889D02*
X10349468Y-10137936D01*
X10349468Y-10137936D02*
X10339944Y-10147460D01*
X10339944Y-10147460D02*
X10320896Y-10156984D01*
X10320896Y-10156984D02*
X10263753Y-10156984D01*
X10263753Y-10156984D02*
X10244706Y-10147460D01*
X10244706Y-10147460D02*
X10235182Y-10137936D01*
X10539944Y-9956984D02*
X10444706Y-9956984D01*
X10444706Y-9956984D02*
X10435182Y-10052222D01*
X10435182Y-10052222D02*
X10444706Y-10042698D01*
X10444706Y-10042698D02*
X10463753Y-10033174D01*
X10463753Y-10033174D02*
X10511372Y-10033174D01*
X10511372Y-10033174D02*
X10530420Y-10042698D01*
X10530420Y-10042698D02*
X10539944Y-10052222D01*
X10539944Y-10052222D02*
X10549468Y-10071270D01*
X10549468Y-10071270D02*
X10549468Y-10118889D01*
X10549468Y-10118889D02*
X10539944Y-10137936D01*
X10539944Y-10137936D02*
X10530420Y-10147460D01*
X10530420Y-10147460D02*
X10511372Y-10156984D01*
X10511372Y-10156984D02*
X10463753Y-10156984D01*
X10463753Y-10156984D02*
X10444706Y-10147460D01*
X10444706Y-10147460D02*
X10435182Y-10137936D01*
X10720896Y-10023650D02*
X10720896Y-10156984D01*
X10673277Y-9947460D02*
X10625658Y-10090317D01*
X10625658Y-10090317D02*
X10749468Y-10090317D01*
X10816134Y-9956984D02*
X10816134Y-9995079D01*
X10892325Y-9956984D02*
X10892325Y-9995079D01*
X11187563Y-10233174D02*
X11178039Y-10223650D01*
X11178039Y-10223650D02*
X11158991Y-10195079D01*
X11158991Y-10195079D02*
X11149468Y-10176031D01*
X11149468Y-10176031D02*
X11139944Y-10147460D01*
X11139944Y-10147460D02*
X11130420Y-10099841D01*
X11130420Y-10099841D02*
X11130420Y-10061746D01*
X11130420Y-10061746D02*
X11139944Y-10014127D01*
X11139944Y-10014127D02*
X11149468Y-9985555D01*
X11149468Y-9985555D02*
X11158991Y-9966508D01*
X11158991Y-9966508D02*
X11178039Y-9937936D01*
X11178039Y-9937936D02*
X11187563Y-9928412D01*
X11254229Y-9976031D02*
X11263753Y-9966508D01*
X11263753Y-9966508D02*
X11282801Y-9956984D01*
X11282801Y-9956984D02*
X11330420Y-9956984D01*
X11330420Y-9956984D02*
X11349468Y-9966508D01*
X11349468Y-9966508D02*
X11358991Y-9976031D01*
X11358991Y-9976031D02*
X11368515Y-9995079D01*
X11368515Y-9995079D02*
X11368515Y-10014127D01*
X11368515Y-10014127D02*
X11358991Y-10042698D01*
X11358991Y-10042698D02*
X11244706Y-10156984D01*
X11244706Y-10156984D02*
X11368515Y-10156984D01*
X11606610Y-10156984D02*
X11606610Y-9956984D01*
X11692325Y-10156984D02*
X11692325Y-10052222D01*
X11692325Y-10052222D02*
X11682801Y-10033174D01*
X11682801Y-10033174D02*
X11663753Y-10023650D01*
X11663753Y-10023650D02*
X11635182Y-10023650D01*
X11635182Y-10023650D02*
X11616134Y-10033174D01*
X11616134Y-10033174D02*
X11606610Y-10042698D01*
X11816134Y-10156984D02*
X11797087Y-10147460D01*
X11797087Y-10147460D02*
X11787563Y-10137936D01*
X11787563Y-10137936D02*
X11778039Y-10118889D01*
X11778039Y-10118889D02*
X11778039Y-10061746D01*
X11778039Y-10061746D02*
X11787563Y-10042698D01*
X11787563Y-10042698D02*
X11797087Y-10033174D01*
X11797087Y-10033174D02*
X11816134Y-10023650D01*
X11816134Y-10023650D02*
X11844706Y-10023650D01*
X11844706Y-10023650D02*
X11863753Y-10033174D01*
X11863753Y-10033174D02*
X11873277Y-10042698D01*
X11873277Y-10042698D02*
X11882801Y-10061746D01*
X11882801Y-10061746D02*
X11882801Y-10118889D01*
X11882801Y-10118889D02*
X11873277Y-10137936D01*
X11873277Y-10137936D02*
X11863753Y-10147460D01*
X11863753Y-10147460D02*
X11844706Y-10156984D01*
X11844706Y-10156984D02*
X11816134Y-10156984D01*
X11997087Y-10156984D02*
X11978039Y-10147460D01*
X11978039Y-10147460D02*
X11968515Y-10128412D01*
X11968515Y-10128412D02*
X11968515Y-9956984D01*
X12149468Y-10147460D02*
X12130420Y-10156984D01*
X12130420Y-10156984D02*
X12092325Y-10156984D01*
X12092325Y-10156984D02*
X12073277Y-10147460D01*
X12073277Y-10147460D02*
X12063753Y-10128412D01*
X12063753Y-10128412D02*
X12063753Y-10052222D01*
X12063753Y-10052222D02*
X12073277Y-10033174D01*
X12073277Y-10033174D02*
X12092325Y-10023650D01*
X12092325Y-10023650D02*
X12130420Y-10023650D01*
X12130420Y-10023650D02*
X12149468Y-10033174D01*
X12149468Y-10033174D02*
X12158991Y-10052222D01*
X12158991Y-10052222D02*
X12158991Y-10071270D01*
X12158991Y-10071270D02*
X12063753Y-10090317D01*
X12235182Y-10147460D02*
X12254230Y-10156984D01*
X12254230Y-10156984D02*
X12292325Y-10156984D01*
X12292325Y-10156984D02*
X12311372Y-10147460D01*
X12311372Y-10147460D02*
X12320896Y-10128412D01*
X12320896Y-10128412D02*
X12320896Y-10118889D01*
X12320896Y-10118889D02*
X12311372Y-10099841D01*
X12311372Y-10099841D02*
X12292325Y-10090317D01*
X12292325Y-10090317D02*
X12263753Y-10090317D01*
X12263753Y-10090317D02*
X12244706Y-10080793D01*
X12244706Y-10080793D02*
X12235182Y-10061746D01*
X12235182Y-10061746D02*
X12235182Y-10052222D01*
X12235182Y-10052222D02*
X12244706Y-10033174D01*
X12244706Y-10033174D02*
X12263753Y-10023650D01*
X12263753Y-10023650D02*
X12292325Y-10023650D01*
X12292325Y-10023650D02*
X12311372Y-10033174D01*
X12387563Y-10233174D02*
X12397087Y-10223650D01*
X12397087Y-10223650D02*
X12416134Y-10195079D01*
X12416134Y-10195079D02*
X12425658Y-10176031D01*
X12425658Y-10176031D02*
X12435182Y-10147460D01*
X12435182Y-10147460D02*
X12444706Y-10099841D01*
X12444706Y-10099841D02*
X12444706Y-10061746D01*
X12444706Y-10061746D02*
X12435182Y-10014127D01*
X12435182Y-10014127D02*
X12425658Y-9985555D01*
X12425658Y-9985555D02*
X12416134Y-9966508D01*
X12416134Y-9966508D02*
X12397087Y-9937936D01*
X12397087Y-9937936D02*
X12387563Y-9928412D01*
D15*
X7596391Y-10368391D02*
X7596391Y-10290609D01*
X7518609Y-10290609D01*
X7518609Y-10368391D01*
X7596391Y-10368391D01*
D11*
X7978039Y-10420984D02*
X7863753Y-10420984D01*
X7920896Y-10420984D02*
X7920896Y-10220984D01*
X7920896Y-10220984D02*
X7901848Y-10249555D01*
X7901848Y-10249555D02*
X7882801Y-10268603D01*
X7882801Y-10268603D02*
X7863753Y-10278127D01*
X8063753Y-10401936D02*
X8073277Y-10411460D01*
X8073277Y-10411460D02*
X8063753Y-10420984D01*
X8063753Y-10420984D02*
X8054229Y-10411460D01*
X8054229Y-10411460D02*
X8063753Y-10401936D01*
X8063753Y-10401936D02*
X8063753Y-10420984D01*
X8263753Y-10420984D02*
X8149467Y-10420984D01*
X8206610Y-10420984D02*
X8206610Y-10220984D01*
X8206610Y-10220984D02*
X8187562Y-10249555D01*
X8187562Y-10249555D02*
X8168515Y-10268603D01*
X8168515Y-10268603D02*
X8149467Y-10278127D01*
X8387562Y-10220984D02*
X8406610Y-10220984D01*
X8406610Y-10220984D02*
X8425658Y-10230508D01*
X8425658Y-10230508D02*
X8435182Y-10240031D01*
X8435182Y-10240031D02*
X8444705Y-10259079D01*
X8444705Y-10259079D02*
X8454229Y-10297174D01*
X8454229Y-10297174D02*
X8454229Y-10344793D01*
X8454229Y-10344793D02*
X8444705Y-10382889D01*
X8444705Y-10382889D02*
X8435182Y-10401936D01*
X8435182Y-10401936D02*
X8425658Y-10411460D01*
X8425658Y-10411460D02*
X8406610Y-10420984D01*
X8406610Y-10420984D02*
X8387562Y-10420984D01*
X8387562Y-10420984D02*
X8368515Y-10411460D01*
X8368515Y-10411460D02*
X8358991Y-10401936D01*
X8358991Y-10401936D02*
X8349467Y-10382889D01*
X8349467Y-10382889D02*
X8339943Y-10344793D01*
X8339943Y-10344793D02*
X8339943Y-10297174D01*
X8339943Y-10297174D02*
X8349467Y-10259079D01*
X8349467Y-10259079D02*
X8358991Y-10240031D01*
X8358991Y-10240031D02*
X8368515Y-10230508D01*
X8368515Y-10230508D02*
X8387562Y-10220984D01*
X8578039Y-10220984D02*
X8597086Y-10220984D01*
X8597086Y-10220984D02*
X8616134Y-10230508D01*
X8616134Y-10230508D02*
X8625658Y-10240031D01*
X8625658Y-10240031D02*
X8635182Y-10259079D01*
X8635182Y-10259079D02*
X8644705Y-10297174D01*
X8644705Y-10297174D02*
X8644705Y-10344793D01*
X8644705Y-10344793D02*
X8635182Y-10382889D01*
X8635182Y-10382889D02*
X8625658Y-10401936D01*
X8625658Y-10401936D02*
X8616134Y-10411460D01*
X8616134Y-10411460D02*
X8597086Y-10420984D01*
X8597086Y-10420984D02*
X8578039Y-10420984D01*
X8578039Y-10420984D02*
X8558991Y-10411460D01*
X8558991Y-10411460D02*
X8549467Y-10401936D01*
X8549467Y-10401936D02*
X8539944Y-10382889D01*
X8539944Y-10382889D02*
X8530420Y-10344793D01*
X8530420Y-10344793D02*
X8530420Y-10297174D01*
X8530420Y-10297174D02*
X8539944Y-10259079D01*
X8539944Y-10259079D02*
X8549467Y-10240031D01*
X8549467Y-10240031D02*
X8558991Y-10230508D01*
X8558991Y-10230508D02*
X8578039Y-10220984D01*
X8730420Y-10420984D02*
X8730420Y-10287650D01*
X8730420Y-10306698D02*
X8739944Y-10297174D01*
X8739944Y-10297174D02*
X8758991Y-10287650D01*
X8758991Y-10287650D02*
X8787563Y-10287650D01*
X8787563Y-10287650D02*
X8806610Y-10297174D01*
X8806610Y-10297174D02*
X8816134Y-10316222D01*
X8816134Y-10316222D02*
X8816134Y-10420984D01*
X8816134Y-10316222D02*
X8825658Y-10297174D01*
X8825658Y-10297174D02*
X8844705Y-10287650D01*
X8844705Y-10287650D02*
X8873277Y-10287650D01*
X8873277Y-10287650D02*
X8892325Y-10297174D01*
X8892325Y-10297174D02*
X8901848Y-10316222D01*
X8901848Y-10316222D02*
X8901848Y-10420984D01*
X8997086Y-10420984D02*
X8997086Y-10287650D01*
X8997086Y-10306698D02*
X9006610Y-10297174D01*
X9006610Y-10297174D02*
X9025658Y-10287650D01*
X9025658Y-10287650D02*
X9054229Y-10287650D01*
X9054229Y-10287650D02*
X9073277Y-10297174D01*
X9073277Y-10297174D02*
X9082801Y-10316222D01*
X9082801Y-10316222D02*
X9082801Y-10420984D01*
X9082801Y-10316222D02*
X9092325Y-10297174D01*
X9092325Y-10297174D02*
X9111372Y-10287650D01*
X9111372Y-10287650D02*
X9139944Y-10287650D01*
X9139944Y-10287650D02*
X9158991Y-10297174D01*
X9158991Y-10297174D02*
X9168515Y-10316222D01*
X9168515Y-10316222D02*
X9168515Y-10420984D01*
X9558991Y-10211460D02*
X9387563Y-10468603D01*
X9816134Y-10220984D02*
X9835182Y-10220984D01*
X9835182Y-10220984D02*
X9854229Y-10230508D01*
X9854229Y-10230508D02*
X9863753Y-10240031D01*
X9863753Y-10240031D02*
X9873277Y-10259079D01*
X9873277Y-10259079D02*
X9882801Y-10297174D01*
X9882801Y-10297174D02*
X9882801Y-10344793D01*
X9882801Y-10344793D02*
X9873277Y-10382889D01*
X9873277Y-10382889D02*
X9863753Y-10401936D01*
X9863753Y-10401936D02*
X9854229Y-10411460D01*
X9854229Y-10411460D02*
X9835182Y-10420984D01*
X9835182Y-10420984D02*
X9816134Y-10420984D01*
X9816134Y-10420984D02*
X9797087Y-10411460D01*
X9797087Y-10411460D02*
X9787563Y-10401936D01*
X9787563Y-10401936D02*
X9778039Y-10382889D01*
X9778039Y-10382889D02*
X9768515Y-10344793D01*
X9768515Y-10344793D02*
X9768515Y-10297174D01*
X9768515Y-10297174D02*
X9778039Y-10259079D01*
X9778039Y-10259079D02*
X9787563Y-10240031D01*
X9787563Y-10240031D02*
X9797087Y-10230508D01*
X9797087Y-10230508D02*
X9816134Y-10220984D01*
X9968515Y-10401936D02*
X9978039Y-10411460D01*
X9978039Y-10411460D02*
X9968515Y-10420984D01*
X9968515Y-10420984D02*
X9958991Y-10411460D01*
X9958991Y-10411460D02*
X9968515Y-10401936D01*
X9968515Y-10401936D02*
X9968515Y-10420984D01*
X10101848Y-10220984D02*
X10120896Y-10220984D01*
X10120896Y-10220984D02*
X10139944Y-10230508D01*
X10139944Y-10230508D02*
X10149468Y-10240031D01*
X10149468Y-10240031D02*
X10158991Y-10259079D01*
X10158991Y-10259079D02*
X10168515Y-10297174D01*
X10168515Y-10297174D02*
X10168515Y-10344793D01*
X10168515Y-10344793D02*
X10158991Y-10382889D01*
X10158991Y-10382889D02*
X10149468Y-10401936D01*
X10149468Y-10401936D02*
X10139944Y-10411460D01*
X10139944Y-10411460D02*
X10120896Y-10420984D01*
X10120896Y-10420984D02*
X10101848Y-10420984D01*
X10101848Y-10420984D02*
X10082801Y-10411460D01*
X10082801Y-10411460D02*
X10073277Y-10401936D01*
X10073277Y-10401936D02*
X10063753Y-10382889D01*
X10063753Y-10382889D02*
X10054229Y-10344793D01*
X10054229Y-10344793D02*
X10054229Y-10297174D01*
X10054229Y-10297174D02*
X10063753Y-10259079D01*
X10063753Y-10259079D02*
X10073277Y-10240031D01*
X10073277Y-10240031D02*
X10082801Y-10230508D01*
X10082801Y-10230508D02*
X10101848Y-10220984D01*
X10339944Y-10287650D02*
X10339944Y-10420984D01*
X10292325Y-10211460D02*
X10244706Y-10354317D01*
X10244706Y-10354317D02*
X10368515Y-10354317D01*
X10425658Y-10220984D02*
X10549468Y-10220984D01*
X10549468Y-10220984D02*
X10482801Y-10297174D01*
X10482801Y-10297174D02*
X10511372Y-10297174D01*
X10511372Y-10297174D02*
X10530420Y-10306698D01*
X10530420Y-10306698D02*
X10539944Y-10316222D01*
X10539944Y-10316222D02*
X10549468Y-10335270D01*
X10549468Y-10335270D02*
X10549468Y-10382889D01*
X10549468Y-10382889D02*
X10539944Y-10401936D01*
X10539944Y-10401936D02*
X10530420Y-10411460D01*
X10530420Y-10411460D02*
X10511372Y-10420984D01*
X10511372Y-10420984D02*
X10454229Y-10420984D01*
X10454229Y-10420984D02*
X10435182Y-10411460D01*
X10435182Y-10411460D02*
X10425658Y-10401936D01*
X10616134Y-10220984D02*
X10739944Y-10220984D01*
X10739944Y-10220984D02*
X10673277Y-10297174D01*
X10673277Y-10297174D02*
X10701849Y-10297174D01*
X10701849Y-10297174D02*
X10720896Y-10306698D01*
X10720896Y-10306698D02*
X10730420Y-10316222D01*
X10730420Y-10316222D02*
X10739944Y-10335270D01*
X10739944Y-10335270D02*
X10739944Y-10382889D01*
X10739944Y-10382889D02*
X10730420Y-10401936D01*
X10730420Y-10401936D02*
X10720896Y-10411460D01*
X10720896Y-10411460D02*
X10701849Y-10420984D01*
X10701849Y-10420984D02*
X10644706Y-10420984D01*
X10644706Y-10420984D02*
X10625658Y-10411460D01*
X10625658Y-10411460D02*
X10616134Y-10401936D01*
X10816134Y-10220984D02*
X10816134Y-10259079D01*
X10892325Y-10220984D02*
X10892325Y-10259079D01*
X11187563Y-10497174D02*
X11178039Y-10487650D01*
X11178039Y-10487650D02*
X11158991Y-10459079D01*
X11158991Y-10459079D02*
X11149468Y-10440031D01*
X11149468Y-10440031D02*
X11139944Y-10411460D01*
X11139944Y-10411460D02*
X11130420Y-10363841D01*
X11130420Y-10363841D02*
X11130420Y-10325746D01*
X11130420Y-10325746D02*
X11139944Y-10278127D01*
X11139944Y-10278127D02*
X11149468Y-10249555D01*
X11149468Y-10249555D02*
X11158991Y-10230508D01*
X11158991Y-10230508D02*
X11178039Y-10201936D01*
X11178039Y-10201936D02*
X11187563Y-10192412D01*
X11349468Y-10220984D02*
X11311372Y-10220984D01*
X11311372Y-10220984D02*
X11292325Y-10230508D01*
X11292325Y-10230508D02*
X11282801Y-10240031D01*
X11282801Y-10240031D02*
X11263753Y-10268603D01*
X11263753Y-10268603D02*
X11254229Y-10306698D01*
X11254229Y-10306698D02*
X11254229Y-10382889D01*
X11254229Y-10382889D02*
X11263753Y-10401936D01*
X11263753Y-10401936D02*
X11273277Y-10411460D01*
X11273277Y-10411460D02*
X11292325Y-10420984D01*
X11292325Y-10420984D02*
X11330420Y-10420984D01*
X11330420Y-10420984D02*
X11349468Y-10411460D01*
X11349468Y-10411460D02*
X11358991Y-10401936D01*
X11358991Y-10401936D02*
X11368515Y-10382889D01*
X11368515Y-10382889D02*
X11368515Y-10335270D01*
X11368515Y-10335270D02*
X11358991Y-10316222D01*
X11358991Y-10316222D02*
X11349468Y-10306698D01*
X11349468Y-10306698D02*
X11330420Y-10297174D01*
X11330420Y-10297174D02*
X11292325Y-10297174D01*
X11292325Y-10297174D02*
X11273277Y-10306698D01*
X11273277Y-10306698D02*
X11263753Y-10316222D01*
X11263753Y-10316222D02*
X11254229Y-10335270D01*
X11606610Y-10420984D02*
X11606610Y-10220984D01*
X11692325Y-10420984D02*
X11692325Y-10316222D01*
X11692325Y-10316222D02*
X11682801Y-10297174D01*
X11682801Y-10297174D02*
X11663753Y-10287650D01*
X11663753Y-10287650D02*
X11635182Y-10287650D01*
X11635182Y-10287650D02*
X11616134Y-10297174D01*
X11616134Y-10297174D02*
X11606610Y-10306698D01*
X11816134Y-10420984D02*
X11797087Y-10411460D01*
X11797087Y-10411460D02*
X11787563Y-10401936D01*
X11787563Y-10401936D02*
X11778039Y-10382889D01*
X11778039Y-10382889D02*
X11778039Y-10325746D01*
X11778039Y-10325746D02*
X11787563Y-10306698D01*
X11787563Y-10306698D02*
X11797087Y-10297174D01*
X11797087Y-10297174D02*
X11816134Y-10287650D01*
X11816134Y-10287650D02*
X11844706Y-10287650D01*
X11844706Y-10287650D02*
X11863753Y-10297174D01*
X11863753Y-10297174D02*
X11873277Y-10306698D01*
X11873277Y-10306698D02*
X11882801Y-10325746D01*
X11882801Y-10325746D02*
X11882801Y-10382889D01*
X11882801Y-10382889D02*
X11873277Y-10401936D01*
X11873277Y-10401936D02*
X11863753Y-10411460D01*
X11863753Y-10411460D02*
X11844706Y-10420984D01*
X11844706Y-10420984D02*
X11816134Y-10420984D01*
X11997087Y-10420984D02*
X11978039Y-10411460D01*
X11978039Y-10411460D02*
X11968515Y-10392412D01*
X11968515Y-10392412D02*
X11968515Y-10220984D01*
X12149468Y-10411460D02*
X12130420Y-10420984D01*
X12130420Y-10420984D02*
X12092325Y-10420984D01*
X12092325Y-10420984D02*
X12073277Y-10411460D01*
X12073277Y-10411460D02*
X12063753Y-10392412D01*
X12063753Y-10392412D02*
X12063753Y-10316222D01*
X12063753Y-10316222D02*
X12073277Y-10297174D01*
X12073277Y-10297174D02*
X12092325Y-10287650D01*
X12092325Y-10287650D02*
X12130420Y-10287650D01*
X12130420Y-10287650D02*
X12149468Y-10297174D01*
X12149468Y-10297174D02*
X12158991Y-10316222D01*
X12158991Y-10316222D02*
X12158991Y-10335270D01*
X12158991Y-10335270D02*
X12063753Y-10354317D01*
X12235182Y-10411460D02*
X12254230Y-10420984D01*
X12254230Y-10420984D02*
X12292325Y-10420984D01*
X12292325Y-10420984D02*
X12311372Y-10411460D01*
X12311372Y-10411460D02*
X12320896Y-10392412D01*
X12320896Y-10392412D02*
X12320896Y-10382889D01*
X12320896Y-10382889D02*
X12311372Y-10363841D01*
X12311372Y-10363841D02*
X12292325Y-10354317D01*
X12292325Y-10354317D02*
X12263753Y-10354317D01*
X12263753Y-10354317D02*
X12244706Y-10344793D01*
X12244706Y-10344793D02*
X12235182Y-10325746D01*
X12235182Y-10325746D02*
X12235182Y-10316222D01*
X12235182Y-10316222D02*
X12244706Y-10297174D01*
X12244706Y-10297174D02*
X12263753Y-10287650D01*
X12263753Y-10287650D02*
X12292325Y-10287650D01*
X12292325Y-10287650D02*
X12311372Y-10297174D01*
X12387563Y-10497174D02*
X12397087Y-10487650D01*
X12397087Y-10487650D02*
X12416134Y-10459079D01*
X12416134Y-10459079D02*
X12425658Y-10440031D01*
X12425658Y-10440031D02*
X12435182Y-10411460D01*
X12435182Y-10411460D02*
X12444706Y-10363841D01*
X12444706Y-10363841D02*
X12444706Y-10325746D01*
X12444706Y-10325746D02*
X12435182Y-10278127D01*
X12435182Y-10278127D02*
X12425658Y-10249555D01*
X12425658Y-10249555D02*
X12416134Y-10230508D01*
X12416134Y-10230508D02*
X12397087Y-10201936D01*
X12397087Y-10201936D02*
X12387563Y-10192412D01*
M02*
