M48
; DRILL file {KiCad 7.0.8} date Thu Oct 19 16:09:33 2023
; FORMAT={-:-/ absolute / inch / decimal}
; #@! TF.CreationDate,2023-10-19T16:09:33-04:00
; #@! TF.GenerationSoftware,Kicad,Pcbnew,7.0.8
; #@! TF.FileFunction,Plated,1,2,PTH
FMAT,2
INCH
; #@! TA.AperFunction,Plated,PTH,ComponentDrill
T1C0.0256
; #@! TA.AperFunction,Plated,PTH,ComponentDrill
T2C0.0315
; #@! TA.AperFunction,Plated,PTH,ComponentDrill
T3C0.0354
; #@! TA.AperFunction,Plated,PTH,ComponentDrill
T4C0.0433
%
G90
G05
T1
X5.425Y-2.3
X5.425Y-2.35
X5.425Y-2.4
X5.425Y-2.45
X5.425Y-2.5
X5.425Y-2.55
X5.425Y-2.6
T2
X3.36Y-1.94
X3.36Y-2.34
X3.45Y-1.62
X3.475Y-2.8079
X3.475Y-3.0
X3.525Y-1.8
X3.525Y-2.1
X3.625Y-1.8
X3.625Y-2.1
X3.7Y-2.71
X3.7Y-2.8084
X3.7Y-2.9766
X3.7Y-3.075
X3.725Y-1.8
X3.725Y-2.1
X3.825Y-1.8
X3.825Y-2.1
X3.85Y-1.62
X4.0Y-2.375
X4.0Y-2.475
X4.0Y-2.575
X4.0Y-2.675
X4.0Y-2.775
X4.0Y-2.875
X4.0Y-2.975
X4.0Y-3.075
X4.0Y-3.175
X4.2Y-1.94
X4.2Y-2.175
X4.3Y-2.375
X4.3Y-2.475
X4.3Y-2.575
X4.3Y-2.675
X4.3Y-2.775
X4.3Y-2.875
X4.3Y-2.975
X4.3Y-3.075
X4.3Y-3.175
X4.6Y-1.94
X4.6Y-2.175
X4.92Y-1.9816
X4.92Y-2.08
X5.08Y-1.9816
X5.08Y-2.08
X5.24Y-1.9816
X5.24Y-2.08
T3
X4.83Y-1.79
X4.93Y-1.79
T4
X3.982Y-1.64
X4.082Y-1.64
X4.262Y-1.64
X4.362Y-1.64
X4.552Y-1.64
X4.652Y-1.64
T0
M30
